<?xml version="1.0" standalone="no"?>
<!DOCTYPE svg PUBLIC "-//W3C//DTD SVG 20010904//EN"
 "http://www.w3.org/TR/2001/REC-SVG-20010904/DTD/svg10.dtd">
<svg version="1.0" xmlns="http://www.w3.org/2000/svg"
 width="345.000000pt" height="345.000000pt" viewBox="0 0 345.000000 345.000000"
 preserveAspectRatio="xMidYMid meet">
<metadata>
Created by potrace 1.14, written by Peter Selinger 2001-2017
</metadata>
<g transform="translate(0.000000,345.000000) scale(0.100000,-0.100000)"
fill="#000000" stroke="none">
<path d="M1536 3144 c-151 -24 -373 -80 -761 -195 -322 -95 -407 -137 -480
-237 -86 -117 -100 -237 -100 -862 1 -626 13 -763 82 -909 70 -148 178 -218
536 -345 245 -88 403 -131 679 -187 267 -53 367 -54 587 -3 250 57 606 185
821 295 52 26 132 78 178 115 133 106 162 184 181 479 14 206 14 919 0 1100
-12 171 -30 244 -74 311 -68 104 -162 158 -390 223 -178 51 -607 164 -704 185
-203 46 -389 56 -555 30z m418 -89 c149 -30 584 -136 726 -176 398 -114 462
-167 492 -405 9 -69 13 -265 12 -644 0 -598 -7 -716 -49 -807 -67 -148 -300
-281 -755 -433 -428 -143 -548 -157 -830 -100 -407 82 -833 217 -1027 326
-131 73 -192 154 -212 285 -35 221 -49 999 -23 1269 24 249 47 302 161 371 72
43 344 137 561 193 74 19 171 44 215 57 337 92 513 108 729 64z"/>
<path d="M1612 2985 c-77 -24 -101 -64 -67 -112 33 -48 208 -69 310 -39 53 16
95 50 95 77 0 24 -53 66 -98 79 -51 14 -188 11 -240 -5z m73 -21 c-54 -15 -82
-18 -72 -8 8 9 67 22 97 22 14 0 4 -6 -25 -14z"/>
<path d="M2286 2843 c-62 -23 -94 -62 -79 -96 6 -14 33 -35 60 -48 41 -20 63
-24 153 -23 89 0 111 3 148 22 79 42 77 102 -6 138 -57 25 -215 29 -276 7z
m124 -13 c11 -7 4 -10 -27 -10 -23 0 -50 -3 -60 -6 -12 -5 -15 -4 -8 4 9 9 33
16 70 20 6 1 17 -3 25 -8z"/>
<path d="M970 2838 c-56 -16 -90 -45 -90 -79 0 -23 9 -34 43 -56 40 -27 48
-28 162 -28 131 0 169 11 201 60 15 23 15 27 -1 51 -29 44 -88 64 -190 63 -49
0 -106 -5 -125 -11z m95 -17 c-12 -11 -95 -19 -95 -9 0 8 31 15 75 17 17 0 25
-3 20 -8z"/>
<path d="M1698 2689 c-104 -15 -155 -59 -130 -114 19 -42 66 -59 182 -63 159
-6 230 21 230 87 0 68 -138 112 -282 90z m61 -23 c-2 -2 -26 -6 -53 -9 -30 -3
-43 -1 -35 4 13 8 97 13 88 5z"/>
<path d="M2883 2400 c-67 -40 -122 -176 -108 -263 21 -122 96 -178 191 -142
130 50 168 284 64 395 -23 24 -36 30 -72 30 -25 0 -56 -8 -75 -20z"/>
<path d="M561 2335 c-49 -15 -121 -79 -121 -107 0 -25 9 -23 75 16 39 24 75
37 113 41 70 8 82 12 82 25 0 13 -61 40 -87 39 -10 0 -38 -7 -62 -14z"/>
<path d="M1358 2189 c-10 -5 -18 -17 -18 -25 0 -8 8 -17 18 -21 67 -23 135
-60 163 -89 32 -33 59 -44 59 -24 0 27 -31 79 -65 109 -62 54 -119 72 -157 50z"/>
<path d="M2215 2186 c-117 -53 -177 -247 -111 -360 64 -110 187 -102 261 18
28 47 30 55 30 152 0 114 -10 137 -75 182 -37 25 -62 27 -105 8z"/>
<path d="M555 2149 c-89 -24 -147 -175 -124 -322 12 -74 39 -124 87 -163 30
-23 46 -29 85 -28 140 2 208 197 136 390 -34 90 -112 142 -184 123z m50 -109
c11 -12 20 -41 23 -74 4 -48 1 -56 -25 -86 -35 -39 -65 -35 -89 12 -19 36 -13
108 11 145 19 28 56 30 80 3z m57 -245 c13 -29 -3 -55 -33 -55 -23 0 -36 44
-19 65 18 22 39 18 52 -10z"/>
<path d="M1343 1981 c-41 -26 -89 -97 -104 -154 -19 -76 -8 -183 24 -249 38
-77 75 -103 149 -103 94 0 147 56 169 177 38 211 -105 409 -238 329z m73 -116
c28 -68 13 -147 -31 -167 -23 -10 -29 -9 -52 15 -22 22 -27 35 -26 75 1 74 25
112 71 112 17 0 27 -9 38 -35z m60 -231 c12 -48 -39 -74 -56 -28 -13 32 -13
30 5 48 20 20 44 10 51 -20z"/>
<path d="M793 1564 c-9 -25 5 -203 22 -269 38 -146 97 -215 186 -215 116 0
189 129 189 335 0 140 -14 165 -59 104 -27 -36 -92 -68 -139 -69 -61 0 -140
55 -157 111 -8 23 -33 25 -42 3z m299 -307 c-44 -93 -108 -131 -151 -88 -27
27 -28 81 -2 101 11 7 17 18 14 23 -3 6 -1 7 6 3 9 -6 9 -11 1 -21 -9 -11 -7
-12 9 -8 16 4 19 1 14 -16 -3 -12 -3 -21 -1 -21 2 0 28 23 57 51 47 45 55 49
63 35 7 -12 4 -30 -10 -59z"/>
<path d="M2905 1426 c-110 -48 -165 -273 -91 -370 107 -141 286 -23 286 188 0
73 -16 120 -54 161 -27 29 -40 35 -72 35 -22 -1 -53 -7 -69 -14z"/>
<path d="M505 1316 c-118 -51 -125 -227 -13 -333 78 -75 175 -67 227 18 95
156 -59 383 -214 315z m102 -41 c21 -9 41 -21 44 -27 16 -25 -4 -26 -51 -1
-27 14 -47 30 -44 34 7 12 9 12 51 -6z"/>
<path d="M2182 1171 c-27 -20 -50 -51 -72 -95 -63 -128 -34 -263 66 -307 60
-27 108 -14 159 42 51 56 67 101 68 184 0 89 -15 136 -59 175 -48 41 -105 42
-162 1z"/>
<path d="M1382 1139 c-45 -9 -100 -64 -113 -113 -12 -44 -4 -117 16 -156 23
-44 81 -97 120 -110 137 -45 241 116 171 265 -26 56 -73 102 -114 111 -15 3
-31 7 -37 8 -5 1 -25 -1 -43 -5z m94 -60 c19 -11 34 -24 34 -29 0 -15 -18 -20
-23 -7 -3 7 -23 19 -46 25 -22 7 -43 17 -46 22 -11 18 47 10 81 -11z"/>
</g>
</svg>
